<svg xmlns="http://www.w3.org/2000/svg" viewBox="0 0 510.76 299.79">
  <defs>
    <style>
      .cls-1, .cls-3 {
        fill: none;
      }

      .cls-1, .cls-2, .cls-3 {
        stroke: #000;
        stroke-miterlimit: 10;
      }

      .cls-1 {
        stroke-width: 0.25px;
      }

      .cls-2 {
        fill: #fff;
      }

      .cls-2, .cls-3 {
        stroke-width: 0.75px;
        stroke-dasharray: 1 1;
      }
    </style>
  </defs>
  <g id="frame">
    <path id="inner_border" class="cls-1" d="M923.22,448.68m15.76,9V306.59c-7.26-8-48.7-51.87-113.49-52.09-58.94-.21-114.1,35.83-141.76,92.27-25-54.11-77.54-89.29-134.7-90-72.27-1-115.72,53.61-120.56,59.9V491.52c5.3,6.72,48.38,59.6,119.44,59.16,57.83-.35,111.32-35.86,136.93-90.79,26.95,57.42,82.26,94.3,141.4,94.14,64.42-.18,105.64-44.24,112.74-52.09v-10.7m0,0,0-33.55v33.55" transform="translate(-428.35 -254.37)"/>
  </g>
  <g id="continents">
    <g id="north_america">
      <polygon id="alaska" class="cls-1" points="30.85 97.23 29.63 97.23 28.11 96.66 26.74 95.14 25.59 94.28 24.72 92.69 24.22 91.79 24.22 90.1 24.08 87.87 24.87 86.93 25.3 85.99 24.94 84.48 24.15 83.83 24.15 81.38 22.78 79.8 21.01 78.29 18.08 76.82 16.33 76.19 16.61 74.66 17.1 73.27 16.13 71.66 15.85 69.29 16.26 67.75 17.1 66.43 19.13 66.29 20.31 64.89 20.38 62.73 18.64 62.03 17.1 64.19 15.22 64.06 14.24 62.17 12.71 60.85 11.17 62.03 9.64 62.59 8.52 64.54 6.71 66.99 5.17 68.66 4.33 71.24 3.36 74.59 2.54 76.59 2.08 79.47 0.13 80.13 0.13 113.99 2.36 115.01 2.36 115.94 2.36 118.27 3.19 118.92 5.61 118.17 6.08 119.38 5.33 120.68 4.59 122.17 6.64 123.01 6.54 124.31 4.59 125.15 4.59 126.64 5.99 127.47 7.85 127.1 8.94 125.92 9.88 124.98 10.96 124.19 12.04 122.82 12.9 121.81 13.99 121.23 14.92 121.23 15.72 120.3 16.58 119.14 17.23 116.62 18.67 114.31 19.97 112.94 21.7 111.94 23.43 111.36 24.58 109.85 26.16 107.9 27.17 107.04 28.18 105.67 29.7 103.86 30.42 102.28 32.29 100.98 31.86 98.53 30.85 97.23"/>
      <polygon id="yukon" class="cls-1" points="65.95 85.49 64.72 85.06 63.57 84.26 63.13 82.25 62.27 80.16 61.05 78.93 60.33 77.06 61.05 75.69 61.05 73.31 60.25 71.72 59.75 69.85 57.59 68.48 56.65 67.11 55.57 65.24 54.2 63.36 53.01 61.85 51.39 59.91 52.18 58.75 52.25 56.59 51.39 55 52.33 52.99 52.33 50.75 53.48 48.45 54.63 46.36 54.2 45.27 54.13 44.05 54.63 42.03 54.27 41.02 53.19 39.58 52.33 37.54 50.73 37.06 49.68 37.13 48.64 37.13 48.01 36.57 47.45 35.8 46.75 35.03 45.57 34.06 44.38 34.13 42.57 34.96 41.38 35.38 39.98 35.87 38.45 37.06 37.4 37.96 35.59 38.45 34.33 38.03 32.1 38.24 31.26 39.15 30.98 40.48 32.45 41.17 34.33 40.89 35.24 42.36 34.26 43.61 34.2 44.52 33.85 45.99 33.15 47.03 32.52 47.73 30.57 49.06 29.38 48.85 27.98 49.06 27.08 50.8 25.61 51.36 24.71 52.82 25.26 55.41 25.82 56.38 27.15 55.75 28.47 54.36 29.8 54.22 30.15 55.68 29.38 57.36 27.5 58.82 27.71 60.78 29.17 61.75 30.15 63.01 29.73 64.61 28.75 67.47 27.43 70.06 25.13 70.27 22.75 70.19 22.26 71.17 22.4 73.13 21.98 76.41 21.01 78.29 22.78 79.8 24.15 81.38 24.15 83.83 24.94 84.48 25.3 85.99 24.87 86.93 24.08 87.87 24.22 90.1 24.22 91.79 24.72 92.69 25.59 94.28 26.74 95.14 28.11 96.66 29.63 97.23 30.85 97.23 31.86 98.53 32.29 100.98 33.52 99.97 34.52 98.53 35.68 97.02 37.41 96.15 38.7 95.29 40.72 95.29 42.24 94.21 43.97 94.21 45.91 93.78 47.5 93.27 49.52 93.27 51.17 93.63 52.11 93.7 53.55 93.27 54.92 93.27 56.94 92.33 58.67 91.25 60.4 90.61 61.33 90.03 62.56 89.24 65.3 89.24 66.81 89.24 66.81 86.28 65.95 85.49"/>
      <path id="canada" class="cls-1" d="M542.57,273.29l-2.52-2.53h-2.51l-1.11-4.31-1.26-2.09-3.21-.7-2.37,2.51-2-5.16-10.28-1.07s-2.6.6-13,3.52a94.25,94.25,0,0,0-18.31,7.3l-.55,2.71.93,1-1.4.83-1.39,1.21-.19,1.77,1.49.56,1.39-.1,1.21.66.47,2.14L487,283.19l-1,1.26-.9.49-1.4,1.39-.63,1.12-.21,1.46-.55,1.54-1.54,1.46.86,2,1.08,1.44.36,1-.51,2,.08,1.22.43,1.09-1.15,2.09-1.15,2.3v2.24l-.94,2,.86,1.59-.07,2.16-.79,1.15,1.62,2,1.19,1.51,1.37,1.88,1.08,1.87.93,1.37,2.17,1.37.5,1.87.79,1.59v2.38l-.72,1.37.72,1.87,1.23,1.22.86,2.09.44,2,1.15.8,1.22.43.87.79v3H498l.65-1h2.38l.72-2.53,1-1.8.65-2.16v-2.95l1.44-1.88,1-1,1.44-1.65.57-1,.72-3.46v-2.67l.65-1.66L511,318.6h3.17l.51-.87h1.22l1.44.51,1-.67,1.1-.94,1.9-1.42,1-1.54.94-.69,1-.41,1-2.1,1.26-2.58-.77-2.37.35-1.68,1.4-.27,1,1.95.56-2.93,1.53-.56v2.16l.84,1.33,2.1-1.19.27-1.81H535l1.4-1.54-1.28-2.67L533,296.26l.74-2.6,1.4-1.12,1.67,1.12.93-1.12,1.49-.65,2.42-.93-.56-2.33-.93-.74L538,285.47l-.28-2h1.49l1.58-1.86-1.67-2.7,1.95-1.68,2.79.84.56-2.51h1.39v-2.23Z" transform="translate(-428.35 -254.37)"/>
      <polygon id="terranova" class="cls-1" points="144.5 79.29 141.69 79.36 140.32 80.16 139.4 79.58 137.94 79.07 137 78.21 135.47 78.21 133.54 78.35 132.1 79.07 131.17 78.35 130.16 77.56 129.15 76.77 127.85 76.48 126.41 77.06 124.82 77.56 123.09 78.35 122.16 77.99 121.08 77.2 119.42 76.7 118.82 75.25 118.19 73.67 117.33 71.87 116.87 70.13 113.52 70.13 112.26 69.29 109.61 68.45 108.36 67.06 108.36 65.24 107.94 63.99 106.59 64.59 105.75 66.17 104.45 67.06 103.57 67.06 102.36 66.08 100.92 65.06 99.1 65.29 97.24 63.01 95.24 61.24 95.47 60.03 95.94 58.2 94.94 58.61 94 59.3 93.04 60.84 91.14 62.26 90.04 63.2 89.01 63.87 89.3 65.24 89.3 66.89 90.16 68.34 90.52 70.64 90.95 71.87 92.97 74.03 94.2 75.25 95.35 75.8 95.92 76.84 95.92 77.92 94.99 79.07 95.92 80.3 94.92 82.03 94.7 83.11 94.92 84.19 95.2 85.27 95.64 86.21 96.57 86.93 97.94 87.94 99.96 88.88 101.55 90.1 102.84 91.4 104.5 91.9 106.3 92.26 107.1 92.84 108.61 92.84 110.19 92.19 111.78 92.48 114.01 93.34 116.61 94.42 118.34 95.36 119.35 96.01 121 97.52 121.87 98.17 123.38 97.52 124.68 97.31 125.98 98.17 127.56 98.17 128.5 99.04 130.09 99.04 131.53 99.04 133.47 98.53 134.84 98.39 135.85 97.96 136.86 97.31 137.36 96.37 138.52 95.94 139.4 96.01 140.32 95.36 141.69 94.57 142.75 93.08 142.47 90.08 142.19 89.31 142.33 87.71 141.99 86.38 142.89 85.41 144.15 84.01 145.13 81.92 145.33 81.15 146.24 79.41 144.5 79.29"/>
      <polygon id="labrador" class="cls-1" points="151.26 71.1 150.57 69.43 149.24 68.03 147.91 66.71 146.87 65.66 147.57 63.99 148.68 62.59 148.68 60.85 146.8 59.31 147.57 58.41 147.57 57.01 145.96 57.36 145.06 58.61 143.73 59.45 142.75 59.17 143.03 58.06 142.89 57.43 143.73 56.45 143.17 55.2 142.13 54.57 140.94 55.27 140.03 53.87 139.06 52.89 138.5 52.2 139.06 51.22 139.06 50.17 138.15 48.71 136.13 47.52 135.15 46.82 133.89 46.96 132.64 48.08 131.24 48.64 130.4 46.96 129.15 45.71 127.75 47.1 125.66 48.5 123.43 50.03 120.78 49.06 118.4 50.45 118.4 53.1 117.43 54.92 117.01 57.29 118.4 59.24 116.45 60.5 115.33 62.45 116.73 64.68 117.43 66.92 116.87 70.13 117.33 71.87 118.19 73.67 118.82 75.25 119.42 76.7 121.08 77.2 122.16 77.99 123.09 78.35 124.82 77.56 126.41 77.06 127.85 76.48 129.15 76.77 130.16 77.56 131.17 78.35 132.1 79.07 133.54 78.35 135.47 78.21 137 78.21 137.94 79.07 139.4 79.58 140.32 80.16 141.69 79.36 144.5 79.29 146.24 79.41 147.36 77.38 148.26 76.54 149.59 75.99 151.26 74.87 150.64 72.64 151.26 71.1"/>
      <polygon id="new_york" class="cls-1" points="140.32 95.36 139.4 96.01 138.52 95.94 137.36 96.37 136.86 97.31 135.85 97.96 134.84 98.39 133.47 98.53 131.53 99.04 130.09 99.04 128.5 99.04 127.56 98.17 125.98 98.17 124.68 97.31 123.38 97.52 121.87 98.17 121 97.52 119.35 96.01 118.34 95.36 116.61 94.42 114.01 93.34 111.78 92.48 110.19 92.19 108.61 92.84 107.1 92.84 106.3 92.26 104.5 91.9 102.84 91.4 101.55 90.1 99.96 88.88 97.94 87.94 96.57 86.93 95.64 86.21 95.2 85.27 94.92 84.19 94.7 83.11 94.92 82.03 95.92 80.3 94.99 79.07 95.92 77.92 95.92 76.84 95.35 75.8 94.2 75.25 92.97 74.03 90.95 71.87 90.52 70.64 90.16 68.34 89.3 66.89 89.3 65.24 89.01 63.87 87.57 63.36 86.34 63.36 85.84 64.23 84.25 64.23 82.67 64.23 80.94 65.45 80.29 67.11 80.29 69.78 79.57 73.24 78.99 74.25 77.55 75.9 76.54 76.91 75.1 78.79 75.1 81.74 74.45 83.9 73.44 85.7 72.72 88.23 73.44 88.52 74.59 89.45 75.24 90.53 75.69 91.83 76.39 93.06 77.33 94.21 78.27 96.08 78.77 97.45 79.57 98.89 80.72 99.69 82.02 100.55 84.03 100.33 84.83 101.34 85.48 102.35 86.2 103.94 86.34 104.59 88.58 105.59 90.09 105.95 92.11 106.31 93.98 108.12 95.06 108.84 96.5 107.47 97.37 107.47 98.3 108.48 98.3 109.92 99.24 110.21 100.68 109.34 102.34 110.5 103.06 111.72 104.36 112.67 105.58 112.67 107.67 111.72 109.19 111.72 110.7 112.22 111.92 112.92 113.36 112.22 114.95 112.22 115.74 113.23 117.33 113.61 118.17 112.96 120.31 114.08 122.82 112.87 124.5 111.57 126.54 109.89 128.59 109.61 130.64 110.13 132.03 110.31 132.17 111.01 133.61 112.13 135.1 110.27 136.64 109.61 138.26 110.17 139.06 111.33 139.24 112.36 138.73 113.89 139.43 115.33 140.36 116.59 139.38 117.66 138.91 119.1 140.08 120.22 141.29 119.06 142.82 119.47 143.8 118.92 144.91 118.92 145.33 118.13 145.71 117.06 145.24 115.61 145.15 114.59 145.52 113.33 146.4 112.68 146.45 110.5 145.02 108.5 144.15 107.52 144.5 106.27 145.19 105.29 145.75 103.89 145.13 102.92 144.78 101.31 143.49 100.96 143 99.64 144.36 99.01 144.22 94.41 142.75 93.08 141.69 94.57 140.32 95.36"/>
      <path id="oregon" class="cls-1" d="M513.82,356.72l-.65-1-.79-1-2,.22-1.29-.87-1.16-.79-.79-1.44-.5-1.37-.94-1.87-.94-1.16-.7-1.22-.45-1.3-.65-1.08-1.15-.94-.72-.28h-2.38l-.65,1h-7.13l-1.23.79-.94.57-1.73.65-1.72,1.08-2,.94H481.9l-1.44.43-.94-.07-1.66-.36h-2l-1.58.51-1.95.43h-1.73l-1.51,1.08h-2l-1.29.86-1.73.87-1.16,1.51-1,1.44-1.22,1-1.88,1.3-.72,1.58L456.53,360l-1,1.37-1,.86-1.58,2-1.16,1.51-1.73.58-1.72,1-1.3,1.37L445.58,371l-.65,2.52-.87,1.16-.79.93h-.94l-1.08.58-.86,1-1.08,1.37-1.08.79-.94.94-1.1,1.18,1.31,1.68,1.2.46,1.49,1.4v1.67l1.12,2.05-.65,2-.47,2.05,1.49.28.93.28v1.39l1.49.84,1.21-1.3,1.39-1.21-.93-1.4a4.82,4.82,0,0,1,0-1.3,1,1,0,0,1,.84-.9l2-.59,1,.59,1.77,1.74.46,1.3.28,1.4-.09,2.51-.65,2.42,1.3,1.3,1.3,1.3,1.86,1.49,3.82-.56,2.23-.18,2.23-.47,1.3.93,1.21,1.95,3.35.87,1.77-1.24,1.49-1.3,1.86-1.77-.82-1.7.5-2.27,1-.79.8-1.3,1.22-1.58.29-1.16,1.08-.93,1.08-.94,1.3-.5.79-1.09.5-1.58.51-1.73,1.15-1.95v-1.44l.43-1.29.8-2.09.72-1.25.72-1.28-.72-.93.36-1.45,1.08-1.22.65-1.59.72-1.15,1.22-1.3,1.08-.7.94-.88,2.31-.58,1.73-.07,1.29-.36,1.73-.36,1.95.5,2.54-.43.92-1.37,1.87.22.58-.72,1.37-.94,1.44-.5.58-.8,1.08-1,1.37-.57,1.44-1.15-.15-.65Z" transform="translate(-428.35 -254.37)"/>
      <polygon id="california" class="cls-1" points="114.95 112.22 113.36 112.22 111.92 112.92 110.7 112.22 109.19 111.72 107.67 111.72 105.58 112.67 104.36 112.67 103.06 111.72 102.34 110.5 100.68 109.34 99.24 110.21 98.3 109.92 98.3 108.48 97.37 107.47 96.5 107.47 95.06 108.84 93.98 108.12 92.11 106.31 90.09 105.95 88.58 105.59 86.34 104.59 84.9 105.74 83.53 106.31 82.45 107.32 81.87 108.12 80.43 108.62 79.06 109.56 78.48 110.28 76.61 110.06 75.69 111.43 73.15 111.86 71.21 111.36 69.48 111.72 68.18 112.08 66.45 112.15 64.14 112.73 63.21 113.61 62.13 114.31 60.9 115.61 60.18 116.77 59.53 118.35 58.45 119.58 58.09 121.02 58.81 121.95 58.09 123.23 57.37 124.48 56.58 126.57 56.15 127.86 56.15 129.3 54.99 131.25 54.49 132.98 53.98 134.56 53.19 135.65 51.89 136.15 50.81 137.09 49.73 138.02 49.44 139.18 48.22 140.76 47.42 142.06 46.42 142.85 45.91 145.12 46.73 146.82 48.59 145.99 50.08 147.66 52.03 147.57 53.98 146.26 55.29 147.94 56.59 146.54 58.73 147.1 59.1 148.87 60.87 149.89 63.75 150.36 65.24 147.66 66.73 150.26 69.52 150.45 71.47 149.89 72.5 151.13 73.71 152.41 75.38 154.36 77.33 154.26 78.82 155.57 80.68 156.41 81.71 157.71 83.75 159.85 84.68 161.24 85.8 160.78 86.92 159.38 88.31 158.64 90.17 158.73 92.13 160.96 92.59 159.57 94.82 159.19 96.4 159.57 97.61 160.78 99.01 162.36 101.43 162.73 101.8 160.68 100.59 158.92 99.01 157.8 98.17 156.96 97.98 155.38 98.45 153.61 98.36 152.31 96.78 152.41 94.82 152.96 94.17 152.03 93.24 151.13 91.38 151.13 90.36 150.36 87.85 150.26 87.01 148.78 87.01 147.19 85.8 146.82 84.4 146.82 83.85 145.71 83.01 144.96 81.43 144.78 79.75 145.06 77.52 145.43 76.03 144.87 74.92 143.75 74.73 142.08 73.52 140.87 72.68 140.31 73.15 139.38 73.98 138.36 74.64 137.43 76.13 136.31 78.08 137.15 79.57 137.8 80.29 135.57 80.29 134.37 81.15 133.32 82.21 131.88 83.22 131.2 85 131.88 86.24 131.25 88.17 131.25 89.03 129.28 90.14 128.42 91.34 127.07 92.06 125.82 93.36 124.38 95.23 123.23 96.72 124.19 98.83 123.97 100.9 124.28 102.05 124.72 103.78 124.09 104.84 123.23 106.81 123.23 108.49 124.43 111.24 124.17 112.08 122.96 112.82 122.22 112.96 121.29 113.57 120.45 113.89 119.66 115.15 119.17 116.03 119.03 116.43 118.66 116.94 118.15 117.92 118.17 118.26 117.54 118.82 116.94 118.31 116.13 118.26 115.22 117.75 114.41 117.33 113.61 115.74 113.23 114.95 112.22"/>
      <polygon id="mexico" class="cls-1" points="106.81 123.23 104.84 123.23 103.78 124.09 102.05 124.72 100.9 124.28 98.83 123.97 96.72 124.19 95.23 123.23 93.36 124.38 92.06 125.82 91.34 127.07 90.14 128.42 89.03 129.28 88.17 131.25 86.24 131.25 85 131.88 83.22 131.2 82.21 131.88 81.15 133.32 80.29 134.37 80.29 135.57 79.57 137.8 79.94 138.92 81.06 139.1 81.98 139.85 83.1 141.24 84.87 141.24 86.45 143.01 87.66 144.41 89.06 143.29 91.38 142.73 92.59 143.85 93.52 144.31 94.54 145.15 96.13 145.06 96.87 146.36 98.64 146.45 100.68 145.61 102.45 146.36 105.24 147.57 105.24 149.06 103.75 150.45 104.59 152.87 106.92 152.5 109.15 153.34 109.61 154.92 111.19 154.92 112.03 155.94 113.33 155.94 115.38 155.85 115.94 157.52 117.15 158.26 118.54 158.08 121.24 158.92 123.29 158.92 124.13 159.19 125.71 160.78 126.17 162.08 129.52 161.8 130.54 163.01 132.13 164.68 134.64 166.82 136.96 167.01 139.03 166.08 139.4 164.24 139.19 161.38 138.15 160.34 136.96 158.94 135.22 158.38 135.15 156.85 136.06 155.52 134.59 153.92 134.03 152.31 134.31 150.85 133.06 148.54 131.43 147.94 130.64 147.29 129.75 146.87 128.87 146.08 128.08 145.34 126.96 144.96 125.94 143.89 125.33 142.92 125.1 142.13 125.85 141.01 124.75 139.61 123.71 138.71 123.01 137.66 122.1 136.82 120.85 137.31 120.36 136.68 120.01 135.92 119.8 134.45 118.82 133.75 117.85 132.92 116.03 133.22 115.31 132.31 114.31 131.89 113.19 130.26 112.26 128.78 112.31 127.71 112.08 126.59 111.57 126.08 111.24 125.24 111.24 124.17 108.49 124.43 106.81 123.23"/>
      <path id="greenland" class="cls-1" d="M582.63,261.2s13.32,3.27,23,8,21.47,11.67,21.47,11.67l.54,2.21-2,.84L623.82,282l-2.51-.84-1.3.93,1.21,1.77,1.39.74-2,1.12-.28,1.49.09,1.67,1.68,1.12-.28,1.77-.19,2.23-1.49,1.4-1.58.65.47,1.49,1,1.3,1.4,2.79L619.82,304,618,305.1l-.46,2,.74,1.76.84,2.61,1.49,1.58-.1,1.86-1,1.77-2.33,1.11-2.6,2-1,1.67v2.7h-1.4l-.47,1.4v3.53l-.93.84,1.31.93.37,1.11-.09,1.12-2.7.46L608,335.24l-1.68-.47-.46-1.39-1.4-.28v-2.33l-1-2.23-1.49-.93-.46-1.86-.38-1.49-2-1.34-1.86-.52-.93-.74-.09-2.23-1.4-1.21-1.67-.38-1.77-1.67-2,1.49-1-1.86,1-1.49,1.58-1.12.37-1.86-1.77-1.21-.18-1.49-.75-1.58-.37-1.76,1.3-1.12,1-1.86-.46-1.12-.84-.65v-2.32l.65-1.21.38-1.12-.56-1.21-1-.28-.65-1.77h-3.35l-1.58-2,.1-1.77-.19-1.39-.54-1.31-.58-1.67-1.58.37V286l.37,1.12-1.11.83-1.12.84-1.21-1.39v-1.86l-1.11-1.21-2.14-.19-1.21-1.86-1.77.93-1.95.28L568,282.31l-1,1.21s-1.21.09-1.3-.19a15.27,15.27,0,0,1,0-2l-1.3-.38-.56-1.21,1.77-3,.84-1.4V273.1l1.11-1.58,1.49-.28.56-1.49-.47-2.42-1.3-.46-.09-1.68,1.58-.65,1.86-.18,1-1.86,2,.09.74,1.21,1.21.37,1.58.56,1.49-.19,1.4-1.11,1.2-.66.86-1.57" transform="translate(-428.35 -254.37)"/>
    </g>
    <g id="south_america">
      <polygon id="argentina" class="cls-1" points="182.33 224.87 181.48 223.01 181.06 221.99 182.16 221.23 182.58 219.46 182.16 218.7 182.58 216.92 183.57 215.57 184.69 215.15 186.38 215.15 187.23 214.14 188.07 212.53 187.56 210.93 186.38 210.08 184.95 208.9 182.24 209.32 180.64 207.97 178.1 207.97 175.82 208.39 174.81 207.21 173.96 206.19 172.44 205.43 171.34 206.11 169.48 206.19 167.96 205.43 166.86 204.67 165.76 204.08 164.24 205.01 163.06 206.24 163.06 207.71 162.13 209.15 162.13 210.67 162.6 213.21 162.13 214.73 162.13 216.5 161.08 218.02 160.53 219.97 161.08 221.06 161.08 223.18 161.79 226.05 161.08 227.49 160.19 228.67 159 230.11 158.16 231.63 157.23 233.49 158.24 235.26 158.16 237.46 157.23 239.15 157.23 241.68 156.68 244.89 156.13 246.25 156.13 248.44 156.68 250.81 156.13 252.33 156.13 253.68 155.03 254.78 154.19 255.63 154.19 259.43 154.73 261.52 156.59 261.52 157.8 263.38 159.57 264.68 160.4 263.01 160.5 261.71 160.78 260.68 161.71 260.13 163.57 258.92 164.5 258.36 165.89 257.43 166.45 256.22 167.47 255.47 168.03 253.71 168.59 252.68 169.99 252.68 170.91 252.68 171.94 252.13 172.03 251.29 172.4 250.45 173.71 250.45 174.54 249.89 175.01 248.59 175.38 247.57 176.4 247.57 177.71 246.92 178.17 244.59 179.19 244.59 180.13 244.59 182.36 243.57 183.01 242.64 184.03 241.24 184.96 240.78 185.8 240.78 186.45 239.75 186.36 238.08 185.06 237.43 184.03 235.94 183.38 235.01 182.54 234.26 182.64 232.96 182.54 232.03 181.99 230.64 182.36 228.78 183.19 228.5 182.16 226.56 182.33 224.87"/>
      <polygon id="uruguay" class="cls-1" points="211.66 213.24 212.96 211.47 211.48 210.59 211.06 209.15 209.7 207.71 208.27 206.78 207.17 206.19 205.4 206.19 204.63 206.95 203.62 207.04 202.44 206.19 201 206.19 198.13 206.36 196.44 205.94 195.51 204.59 194.16 203.74 192.21 204.08 191.11 205.35 190.69 206.87 190.02 207.97 188.75 208.98 186.38 210.08 187.56 210.93 188.07 212.53 187.23 214.14 186.38 215.15 184.69 215.15 183.57 215.57 182.58 216.92 182.16 218.7 182.58 219.46 182.16 221.23 181.06 221.99 181.48 223.01 182.33 224.87 182.16 226.56 183.19 228.5 184.13 229.06 184.96 231.01 185.8 232.31 186.91 233.34 186.82 235.38 188.03 236.31 189.15 236.78 189.71 235.66 189.61 234.64 189.8 233.24 190.45 232.4 191.75 232.4 193.43 231.94 193.89 230.73 194.91 229.43 195.47 228.03 196.4 228.03 197.71 228.03 198.82 226.64 200.31 225.8 201.15 225.15 202.26 225.71 203.57 225.99 205.43 226.64 206.54 225.8 208.03 224.96 208.59 224.13 208.68 223.29 209.61 221.34 211.29 220.78 211.84 219.94 212.68 218.26 212.96 216.59 212.4 214.82 211.66 213.24"/>
      <polygon id="chile" class="cls-1" points="154.19 255.63 155.03 254.78 156.13 253.68 156.13 252.33 156.68 250.81 156.13 248.44 156.13 246.25 156.68 244.89 157.23 241.68 157.23 239.15 158.16 237.46 158.24 235.26 157.23 233.49 158.16 231.63 159 230.11 160.19 228.67 161.08 227.49 161.79 226.05 161.08 223.18 161.08 221.06 160.53 219.97 161.08 218.02 162.13 216.5 162.13 214.73 162.6 213.21 162.13 210.67 162.13 209.15 163.06 207.71 163.06 206.24 159.51 206.24 156.68 206.24 155.29 206.24 153.85 204.59 151.82 205.01 150.81 205.85 148.87 206.92 149.24 208.41 150.54 209.43 150.82 211.01 151.57 212.78 151.57 214.54 151.66 216.13 150.54 217.61 150.45 218.73 150.26 219.94 149.89 221.71 150.26 222.64 151.47 224.59 150.91 226.26 150.54 228.22 150.36 230.17 149.71 231.85 148.5 232.96 148.5 234.45 149.61 235.38 149.71 236.96 150.64 240.13 149.89 241.24 149.71 242.45 149.89 243.38 150.17 244.68 150.26 246.26 149.89 248.13 149.43 249.52 149.71 250.82 150.08 253.24 150.54 254.45 150.08 256.03 150.82 258.54 151.66 260.22 152.87 261.52 154.73 261.52 154.19 259.43 154.19 255.63"/>
      <polygon id="peru" class="cls-1" points="151.82 205.01 153.85 204.59 155.29 206.24 156.68 206.24 159.51 206.24 163.06 206.24 164.24 205.01 165.76 204.08 166.86 204.67 167.96 205.43 169.48 206.19 171.34 206.11 172.44 205.43 173.96 206.19 174.81 207.21 175.82 208.39 178.1 207.97 180.64 207.97 179.71 205.01 180.64 202.14 179.37 200.02 179.37 197.83 178.54 196.31 177.76 194.28 175.99 192.84 174.97 190.98 173.12 189.88 173.12 187.35 172.69 186 173.12 183.46 172.27 182.11 171.34 180.42 169.48 179.24 166.95 179.24 165.68 180.08 163.82 180.08 162.13 180.5 160.61 179.41 158.84 180.5 156.64 179.74 154.27 180.08 152.33 180.08 151.26 180.93 149.37 181.94 147.17 182.53 145.99 183.55 144.56 184.22 141.52 185.06 141.52 186.45 142.54 188.41 142.73 189.52 143.85 191.47 143.85 192.5 143.66 193.8 143.66 195.29 144.13 196.59 145.15 197.89 145.96 198.82 147.19 200.03 146.82 202.45 146.91 205.15 148.87 206.92 150.81 205.85 151.82 205.01"/>
      <polygon id="brasil" class="cls-1" points="233.71 186.26 232.73 184.78 232.03 184.26 231.43 183.15 231.43 181.8 229.99 179.8 228.22 179.47 227.66 178.54 228.22 177.43 228.22 175.19 226.64 174.54 224.68 175.19 222.91 175.19 221.43 174.82 220.4 174.36 218.73 173.89 217.33 173.34 216.68 172.03 215.84 171.38 214.17 171.47 212.5 172.03 211.19 171.57 211.19 170.26 209.71 169.34 208.03 169.8 206.54 170.26 205.71 169.34 204.59 169.34 203.23 168.59 202.73 167.29 201.43 166.64 200.13 165.43 198.54 165.8 197.24 166.64 196.03 166.64 195.29 164.96 195.29 163.38 194.82 161.99 194.08 160.13 192.96 159.01 191.75 158.45 190.08 158.64 188.5 159.19 187.57 158.26 185.71 157.43 184.13 157.61 182.45 159.29 180.03 161.06 178.54 161.52 178.54 163.27 178.54 164.79 177.34 166.06 176.83 167.01 175.9 168 174.89 169.27 174.21 170.2 174.21 171.21 173.28 172.39 173.28 173.58 172.19 174.76 171.17 175.35 170.07 176.11 170.07 177.29 169.48 179.24 171.34 180.42 172.27 182.11 173.12 183.46 172.69 186 173.12 187.35 173.12 189.88 174.97 190.98 175.99 192.84 177.76 194.28 178.54 196.31 179.37 197.83 179.37 200.02 180.64 202.14 179.71 205.01 180.64 207.97 182.24 209.32 184.95 208.9 186.38 210.08 188.75 208.98 190.02 207.97 190.69 206.87 191.11 205.35 192.21 204.08 194.16 203.74 195.51 204.59 196.44 205.94 198.13 206.36 201 206.19 202.44 206.19 203.62 207.04 204.63 206.95 205.4 206.19 207.17 206.19 208.27 206.78 209.7 207.71 211.06 209.15 211.48 210.59 212.96 211.47 214.26 211.47 215.47 211.47 216.87 210.64 217.99 210.64 218.45 209.61 219.19 208.03 220.5 209.61 222.26 209.61 223.29 208.68 223.75 207.19 222.64 205.99 222.54 204.5 221.87 203.03 223.54 202.26 224.1 201.29 225.08 200.73 226.06 199.41 225.99 198.64 226.47 197.45 227.17 196.54 227.94 195.5 228.71 194.66 228.64 193.82 230.1 192.32 230.56 191.66 231.75 191.19 233.43 191.19 234.22 188.82 234.22 187.47 233.71 186.26"/>
      <path id="colombia" class="cls-1" d="M574.34,437.92l1.18-1,2.2-.59,1.89-1,1.07-.85h1.94l2.37-.34,2.19.76,1.78-1.09,1.52,1.09,1.69-.42H594l1.26-.84h2.54l.59-1.95v-1.18l1.1-.76,1-.59,1.1-1.18v-1.19l.93-1.18v-1l.68-.93,1-1.27.93-1,.51-1,1.2-1.26v-3.27l-.7-1-1.11-1.74-.35-1.4-1.61-.48-2.58.27-1.18-.62-.28-.63s-2.31,0-2.24-.21-2,0-2,0l-.93-.93-1-1.49-1.58-.55-.93,1.67-1.11.28-1.4-.09-2.05,1.86-1.48.93-1.49-1-2.33.47-.86,1.86L578,414.59l-1.58,2.14-1.68,1-2.23,1.58-3.53-.72h-1.19l-.37,1.84-2.07.93.14.66.23,1.11v1.76l-1.39,1.77-1.12,1.3.28,1.58,1.21.38,1.58,1.86,1.49,1.49v1.39l.46,2.33,1.68,2.42,3-.84Z" transform="translate(-428.35 -254.37)"/>
    </g>
    <g id="asia">
      <polygon id="israel" class="cls-1" points="393.89 170.36 395.94 167.85 395.94 167.01 397.43 165.43 397.43 164.41 399.29 162.45 399.29 161.15 400.77 159.57 402.92 159.57 404.5 158.17 407.94 155.28 407.94 153.77 409.43 155.28 412.22 152.22 413.52 152.22 414.45 150.26 415.47 148.17 415.1 145.99 413.99 146.17 412.96 147.19 412.59 146.17 410.78 144.87 408.03 145.06 407.57 144.13 406.17 143.1 404.12 144.41 402.36 144.13 401.61 143.1 400.31 142.92 399.47 141.06 397.43 142.08 396.03 141.89 394.54 141.06 392.5 141.8 391.38 143.1 389.71 144.31 387.57 145.89 386.08 147.47 385.05 149.15 381.24 149.15 380.31 150.24 379.1 150.24 376.03 152.41 373.76 155.28 372.73 157.88 372.73 160.04 373.76 161.77 373.76 163.64 373.76 165.52 376.33 166.24 378.21 166.96 380.51 167.82 382.68 168.98 383.97 169.99 384.84 171.79 384.84 173.01 387.58 173.16 389.16 173.3 390.75 171.79 392.4 170.36 393.89 170.36"/>
      <polygon id="arabia" class="cls-1" points="429.95 155.72 429.23 154.13 428.65 152.11 427.07 151.09 425.43 151.13 424.59 152.22 423.01 150.24 420.87 150.24 419.85 149.15 417.31 148.17 415.47 148.17 414.45 150.26 413.52 152.22 412.22 152.22 409.43 155.28 407.94 153.77 407.94 155.28 404.5 158.17 402.92 159.57 400.77 159.57 399.29 161.15 399.29 162.45 397.43 164.41 397.43 165.43 395.94 167.01 395.94 167.85 393.89 170.36 392.4 170.36 390.75 171.79 391.61 173.59 391.61 176.04 393.34 176.62 395.94 177.48 398.87 176.47 400.69 176.04 403.14 177.19 404.44 178.49 406.6 180.07 408.33 180.22 410.93 178.63 413.09 179.21 414.05 180.65 416.12 182.16 417.41 182.16 418.71 183.82 421.01 184.69 422.75 183.82 423.46 180.65 424.33 178.35 424.33 176.18 424.33 174.45 425.84 173.59 427.79 173.44 427.79 171.75 425.84 168.4 423.61 167.1 423.9 164.65 425.84 163.5 427.79 160.91 428.65 159.18 430.53 157.16 429.95 155.72"/>
      <polygon id="turkey" class="cls-1" points="428.59 138.26 426.82 137.15 425.99 135.47 424.77 134.64 423.57 132.31 422.08 133.61 420.22 132.5 418.36 130.54 418.36 128.5 415.01 125.15 412.59 125.15 411.47 123.66 410.82 121.24 409.8 119.94 408.31 118.27 405.45 116.66 398.87 115.79 397.81 117.38 394.5 116.08 390.46 119.83 391.04 121.7 387.58 123.14 385.42 125.31 382.89 126.89 380.51 128.04 377.49 129.59 374.75 129.59 373.76 131.94 372.3 133.52 372.01 134.96 370.71 136.84 369.13 137.84 367.54 138.85 364.8 139.57 364.08 142.02 363.22 143.61 361.63 144.76 359.76 145.92 363.07 146.2 365.81 148.08 367.4 149.09 369.7 151.09 371.29 152.11 372.44 154.13 373.76 155.28 376.03 152.41 379.1 150.24 380.31 150.24 381.24 149.15 385.05 149.15 386.08 147.47 387.57 145.89 389.71 144.31 391.38 143.1 392.5 141.8 394.54 141.06 396.03 141.89 397.43 142.08 399.47 141.06 400.31 142.92 401.61 143.1 402.36 144.13 404.12 144.41 406.17 143.1 407.57 144.13 408.03 145.06 410.78 144.87 412.59 146.17 412.96 147.19 413.99 146.17 415.1 145.99 415.47 148.17 417.31 148.17 419.85 149.15 420.87 150.24 423.01 150.24 424.59 152.22 425.43 151.13 427.07 151.09 427.79 149.86 429.23 149.09 429.23 146.49 429.23 144.91 430.53 143.61 428.59 138.26"/>
      <polygon id="iran" class="cls-1" points="437.52 131.24 434.87 131.24 433.84 129.63 432.5 127.89 430.82 124.68 428.77 122.73 428.77 120.31 427.57 118.17 426.26 116.78 423.75 115.57 423.01 113.15 421.99 111.75 421.99 107.47 420.03 106.08 418.64 104.68 417.31 103.57 417.31 102.08 416.31 99.85 416.31 96.64 415.05 93.43 411.57 89.52 409.75 87.71 408.19 87.08 406.54 85.33 405.48 82.82 405.48 77.66 403.47 76.13 403.47 74.03 401.43 72.64 398.31 70.27 397.75 68.31 396.64 66.64 394.4 65.24 392.5 62.64 390.73 64.13 388.5 65.06 385.13 66.07 385.13 70.1 383.25 71.4 386.57 72.84 385.27 77.74 386.57 80.48 388.01 83.22 387.29 88.12 388.73 92.3 390.46 94.03 392.62 97.92 392.62 100.66 396.22 103.25 398.24 105.27 398.87 108.01 401.27 110.75 401.27 113.77 403.72 113.77 405.45 116.66 408.31 118.27 409.8 119.94 410.82 121.24 411.47 123.66 412.59 125.15 415.01 125.15 418.36 128.5 418.36 130.54 420.22 132.5 422.08 133.61 423.57 132.31 424.77 134.64 425.99 135.47 426.82 137.15 428.59 138.26 430.53 143.61 431.54 141.16 433.99 140.44 436 140.29 437.01 138.28 438.31 136.98 438.31 133.89 437.52 131.24"/>
      <polygon id="gobi" class="cls-1" points="451.19 91.47 450.09 89.94 448.12 88.54 449.24 86.45 448.12 84.64 448.12 82.13 446.45 80.59 444.5 79.47 443.94 77.1 442.12 77.1 439.33 78.08 438.5 79.64 437.52 81.99 436.54 83.66 433.84 84.92 431.8 84.5 429.89 86.31 428.17 85.89 426.77 87.08 424.4 87.08 424.4 89.52 423.15 90.78 418.64 94.96 416.31 96.64 416.31 99.85 417.31 102.08 417.31 103.57 418.64 104.68 420.03 106.08 421.99 107.47 421.99 111.75 423.01 113.15 423.75 115.57 426.26 116.78 427.57 118.17 428.77 120.31 428.77 122.73 430.82 124.68 432.08 121.89 433.84 119.66 436.12 119.66 438.36 118.27 438.36 116.03 441.01 112.62 440.45 110.17 443.52 108.08 444.77 105.15 446.31 105.15 448.4 101.94 448.26 99.01 451.19 96.22 451.19 91.47"/>
      <polygon id="mongolia" class="cls-1" points="441.29 75.43 440.31 72.36 440.31 69.85 439.33 67.89 440.31 66.07 439.33 63.57 440.31 60.64 439.05 58.13 438.36 54.54 436.03 53.15 433.84 56.13 431.66 56.13 428.5 59.29 427.1 59.29 423.47 60.22 420.68 61.99 419.29 61.24 412.96 60.22 408.87 61.24 407.1 59.85 404.22 59.2 401.43 58.82 400.03 60.22 398.92 60.78 396.96 59.38 394.26 59.85 392.5 62.64 394.4 65.24 396.64 66.64 397.75 68.31 398.31 70.27 401.43 72.64 403.47 74.03 403.47 76.13 405.48 77.66 405.48 82.82 406.54 85.33 408.19 87.08 409.75 87.71 411.57 89.52 415.05 93.43 416.31 96.64 418.64 94.96 423.15 90.78 424.4 89.52 424.4 87.08 426.77 87.08 428.17 85.89 429.89 86.31 431.8 84.5 433.84 84.92 436.54 83.66 437.52 81.99 438.5 79.64 439.33 78.08 442.12 77.1 441.29 75.43"/>
      <polygon id="india" class="cls-1" points="473.52 133.61 472.26 132.22 472.26 130.41 470.45 128.03 468.92 128.03 467.38 129.63 465.57 131.52 462.36 131.38 460.12 133.61 458.31 132.5 456.36 132.5 455.66 130.54 454.4 128.87 452.87 129.63 450.64 129.63 448.96 131.24 447.29 131.24 445.05 131.24 444.22 129.63 442.82 129.63 441.7 131.24 437.52 131.24 438.31 133.89 438.31 136.98 439.18 139 442.2 139.29 444.08 139.57 446.09 141.01 446.96 142.75 446.09 144.47 445.95 146.06 445.95 149.86 446.96 151.09 446.96 152.83 445.81 154.85 443.5 157.16 443.64 158.89 443.07 160.91 440.9 163.64 439.93 167.1 439.93 169.41 438.74 170.56 439.93 173.59 443.21 174.74 445.08 176.33 446.96 177.91 450.56 177.77 452.72 178.2 454.02 179.35 455.8 179.5 455.8 177.05 455.8 174.74 455.03 173.01 453.44 169.41 454.02 167.25 455.8 166.24 457.19 166.38 458.63 165.95 460.94 161.91 462.81 160.47 465.41 158.6 466.35 156.58 467.28 154.71 467.28 152.26 467.28 149.86 467.28 146.06 468.87 142.89 471.17 142.02 473.19 141.45 473.77 140.01 473.77 137.84 473.77 135.83 473.52 133.61"/>
      <polygon id="malasya" class="cls-1" points="505.91 116.8 505.33 114.35 504.47 112.77 503.6 110.17 501.85 111.85 500.03 111.71 498.64 112.62 497.1 112.62 495.57 114.64 493.89 115.61 492.08 117.29 489.98 120.08 487.47 121.61 485.52 123.01 483.7 122.03 482.17 122.31 480.5 123.99 477.57 124.13 476.17 125.1 474.77 125.24 473.24 126.22 471.57 126.22 470.45 128.03 472.26 130.41 472.26 132.22 473.52 133.61 473.77 135.83 476.79 138.42 478.67 139.29 480.97 138.71 480.97 140.01 482.42 141.74 482.42 143.9 482.42 146.64 483.22 148.22 484.58 149.86 486.16 149.86 487.32 151.09 488.69 152.83 489.33 154.85 490.92 156 493.23 155 494.38 152.83 495.53 151.09 496.97 151.09 496.97 148.8 498.13 146.64 500.9 145.92 503.31 146.06 505.19 144.19 505.19 140.58 503.6 138.56 505.19 137.27 505.19 135.54 503.31 134.96 502.31 133.52 500.9 132.51 502.31 129.59 505.19 128.48 505.19 126.46 506.05 123.86 507.06 121.7 507.06 119.68 505.91 116.8"/>
      <polygon id="china" class="cls-1" points="506.05 92.3 505.62 89.7 503.89 87.25 501.87 85.81 498.41 85.52 495.96 85.52 492.79 84.66 490.63 84.8 489.33 80.91 486.31 78.61 483.22 80.91 483.22 82.64 479.68 83.36 479.25 81.63 480.11 78.75 476.65 78.75 474.78 77.89 472.9 73.99 473.33 71.11 473.33 68.66 471.61 65.49 469.01 64.48 467.57 62.03 467.14 59.58 466.35 57.27 464.54 56.41 464.4 53.96 466.35 52.95 469.15 55.69 469.73 58.86 470.88 55.69 470.31 51.65 468.72 48.77 466.35 47.04 464.4 43.73 463.25 42 460.94 40.55 458.92 40.99 457.05 41.71 455.17 42.72 452.58 42.43 449.94 43.2 448.12 42.81 446.64 44.31 447.29 48.22 445.33 50.17 443.01 51.1 440.56 51.66 438.36 54.54 439.05 58.13 440.31 60.64 439.33 63.57 440.31 66.07 439.33 67.89 440.31 69.85 440.31 72.36 441.29 75.43 442.12 77.1 443.94 77.1 444.5 79.47 446.45 80.59 448.12 82.13 448.12 84.64 449.24 86.45 448.12 88.54 450.09 89.94 451.19 91.47 451.19 96.22 448.26 99.01 448.4 101.94 446.31 105.15 444.77 105.15 443.52 108.08 440.45 110.17 441.01 112.62 438.36 116.03 438.36 118.27 436.12 119.66 433.84 119.66 432.08 121.89 430.82 124.68 432.5 127.89 433.84 129.63 434.87 131.24 437.52 131.24 441.7 131.24 442.82 129.63 444.22 129.63 445.05 131.24 447.29 131.24 448.96 131.24 450.64 129.63 452.87 129.63 454.4 128.87 455.66 130.54 456.36 132.5 458.31 132.5 460.12 133.61 462.36 131.38 465.57 131.52 467.38 129.63 468.92 128.03 470.45 128.03 471.57 126.22 473.24 126.22 474.77 125.24 476.17 125.1 477.57 124.13 480.5 123.99 482.17 122.31 483.7 122.03 485.52 123.01 487.47 121.61 489.98 120.08 492.08 117.29 493.89 115.61 495.57 114.64 497.1 112.62 498.64 112.62 500.03 111.71 501.85 111.85 503.6 110.17 504.76 108.22 506.05 106.14 505.91 103.4 506.05 101.67 507.06 100.23 507.93 98.5 507.93 95.9 506.05 92.3"/>
      <path id="kamchatka" class="cls-1" d="M878.29,297.57l2.64-.77,1.44-1.88,3.17-.72,2.45-2.73,2-3.9,2.45-1.29,1.3-.87.93-2.74-.65-2.59.65-3.6h-2.52l.14-2.6a18,18,0,0,1-2.59.87,31.39,31.39,0,0,1-3.17-.87l-2.4-1.3h-2.93l-1.88-2.16s-1.15-2-1.58-2.16-3.89-2.45-3.89-2.45L872.14,269l-2.45,1.59-.29,1.58-1.12,1.73-2.34,1.3.58,2.39v1.58l-1.58,2.42-1.31,2L863,286.4l.75,2.33-1.54,1.11V292l2.16,2.42,2.63,1.17,2.24-1.73,1.11,1.73v1.62l2.23,1.49H875l1.49-1.5Z" transform="translate(-428.35 -254.37)"/>
      <polygon id="syberia" class="cls-1" points="446.64 44.31 444.22 44.31 441.99 42.82 441.99 41.2 440.87 39.48 438.64 41.2 436.01 40.03 433.84 37.61 433.84 35.48 435.38 34.36 434.64 32.03 435.29 29.24 436.59 27.2 438.17 24.78 438.17 23.2 437.59 20.81 434.71 21.82 431.82 21.67 428.08 21.82 427.85 24.87 428.77 26.36 428.87 27.94 429.89 28.68 429.89 29.99 428.59 32.03 426.82 33.06 425.33 35.1 423.1 35.48 421.15 37.99 419.01 39.94 417.99 41.2 415.85 42.36 412.87 42.36 411.01 42.92 408.19 42.92 406.17 44.31 404.31 42.92 402.64 44.31 402.08 46.36 397.8 46.36 395.94 47.1 393.99 48.22 391.1 48.22 389.99 48.68 391.1 51.2 390.26 52.41 390.26 54.08 391.1 55.38 391.1 58.08 392.5 60.41 392.5 62.64 394.26 59.85 396.96 59.38 398.92 60.78 400.03 60.22 401.43 58.82 404.22 59.2 407.1 59.85 408.87 61.24 412.96 60.22 419.29 61.24 420.68 61.99 423.47 60.22 427.1 59.29 428.5 59.29 431.66 56.13 433.84 56.13 436.03 53.15 438.36 54.54 440.56 51.66 443.01 51.1 445.33 50.17 447.29 48.22 446.64 44.31"/>
      <polygon id="taymir" class="cls-1" points="404.31 42.92 406.17 44.31 408.19 42.92 411.01 42.92 412.87 42.36 415.85 42.36 417.99 41.2 419.01 39.94 421.15 37.99 423.1 35.48 425.33 35.1 426.82 33.06 428.59 32.03 429.89 29.99 429.89 28.68 428.87 27.94 428.77 26.36 427.85 24.87 428.08 21.82 426.64 20.09 426.93 17.49 425.84 13.75 423.61 16.05 421.88 18.07 419 17.93 417.27 16.48 416.55 14.04 414.05 12.45 414.05 8.99 410.93 11.87 408.19 12.74 408.12 16.34 407.1 17.24 406.64 19.29 405.05 20.96 404.87 22.73 406.08 23.57 406.08 25.89 404.22 27.66 404.31 29.89 405.33 31.29 403.01 33.8 402.64 35.48 402.64 40.87 401.43 42.64 402.64 44.31 404.31 42.92"/>
      <polygon id="tartary" class="cls-1" points="393.99 48.22 395.94 47.1 397.8 46.36 402.08 46.36 402.64 44.31 401.43 42.64 402.64 40.87 402.64 35.48 403.01 33.8 405.33 31.29 404.31 29.89 404.22 27.66 406.08 25.89 406.08 23.57 404.87 22.73 405.05 20.96 406.64 19.29 407.1 17.24 408.12 16.34 408.19 12.74 406.17 11.15 405.16 8.27 402.42 4.38 400.55 4.38 398.87 2.94 395.79 4.38 395.65 6.11 394.5 8.85 391.9 11.01 388.87 13.17 386.28 13.6 382.39 12.02 380.95 11.15 380.66 14.32 380.08 16.92 377.49 17.35 378.26 21.06 378.26 25.8 380.03 28.13 385.15 28.5 386.73 29.61 387.66 30.36 388.96 30.36 389.33 33.06 388.31 34.45 388.12 37.15 389.33 40.13 391.1 42.54 391.1 48.22 393.99 48.22"/>
      <polygon id="aral" class="cls-1" points="391.1 58.08 391.1 55.38 390.26 54.08 390.26 52.41 391.1 51.2 389.99 48.68 391.1 48.22 391.1 42.54 389.33 40.13 388.12 37.15 388.31 34.45 389.33 33.06 388.96 30.36 387.66 30.36 386.73 29.61 385.15 28.5 380.03 28.13 378.26 25.8 378.26 21.06 377.49 17.35 375.76 16.34 373.02 17.06 371.72 22.39 369.85 24.27 370.14 27.58 369.85 31.04 367.98 32.34 365.67 33.2 363.36 34.93 362.64 37.24 360.34 40.84 365.67 42.57 369.27 42.57 371.72 45.46 373.02 48.34 373.76 51.8 372.15 53.81 372.44 56.99 376.48 58.72 379.07 61.6 381.52 61.6 383.54 63.18 385.13 66.07 388.5 65.06 390.73 64.13 392.5 62.64 392.5 60.41 391.1 58.08"/>
      <polygon id="japan" class="cls-1" points="479.1 34.27 476.17 37.06 476.17 42.64 479.1 46.68 481.61 44.31 484.12 47.94 488.76 50.45 488.76 53.15 486.64 58.27 489.85 60.78 491.1 62.64 494.87 60.22 496.82 58.54 500.03 60.92 502.12 61.75 504.64 64.96 507.93 67.89 510.64 66.5 510.64 62.17 505.75 56.31 501.57 52.27 501.29 46.68 499.33 44.31 496.12 41.72 493.89 40.55 490.4 39.15 487.05 34.27 484.26 35.1 483.01 34.27 479.52 32.73 479.1 34.27"/>
    </g>
    <g id="oceania">
      <g id="australia">
        <path class="cls-1" d="M936.19,462.91l-1.39.84-3.77.56-2.23-2.09v-4.53l2.23-1.47-.42-2.24h-2.93l-1.95,2.38-1.68,1.33L922.8,460l-4.89-.71v-3.19l2.24-2.1,1.67-1.25,1.12-1.54.28-2.51-2.93,1.54-1.68,1-.7,1.82-1.39,1.25h-2.37v2.23l-1,1.2v1.58l-2.79,2v3.07h-2.93l-.84,1.39-1.81.56v1.4H902l-.7-1.82-1.4-.41v1.67l-2.09,1.67-2,1.68v1.81l-1.12,1.54-1.26.82-4.74-3.89-2.37-.14,2.65,2.65-.7,3.21-2,1.81-.84,2.93-1.39,3.21V488h2.23l-.28,2.87,1.81,1,3.35-.84,1.26-3,1.39-2.15,2.38,1L895,489l1.39,2.23,3.63-.56,2.37-2.73,3.77,2-1.39,2.66,1.67,1,1,3.49,4.11,1.81-1.18,1.68h-2.09l-2.1,2.09,1.68,1.4h3.69l3.28,3.21h1.68l.7-2.1,3.76.28,1.4-1.81,2.23-1.4,1.54-.28-1-1.25-.7-2,3.77-.28,1.39-2.23,1.54-.81.56,3.32,1.25.14,2.1-3.46,1.95-2.12,2-2.09V457.69l-1.53,4Z" transform="translate(-428.35 -254.37)"/>
        <polygon class="cls-1" points="499.68 249.76 499.68 250.63 500.68 251.67 503.64 251.67 503.64 250.77 502.67 249.55 502.56 248.68 499.68 249.76"/>
      </g>
      <polygon id="sumatra" class="cls-1" points="432.98 182.2 431.1 182.99 430.31 185.16 428.73 185.16 428.01 187.32 426.28 187.97 425.84 191.71 427.5 193.44 430.24 196.33 432.19 198.06 433.77 198.06 434.13 199.14 437.66 199.14 438.67 200.58 439.18 203.32 440.76 206.41 442.2 207.14 444.94 208.36 446.81 209.15 448.18 209.15 450.92 212.04 453.08 211.68 454.02 210.31 453.3 207.86 452.65 206.2 451.86 204.9 449.55 203.32 449.84 201.15 450.56 198.42 449.91 197.05 448.76 195.75 448.62 193.44 449.48 192.36 449.34 190.85 447.18 188.62 445.88 189.48 444.15 188.25 442.13 187.17 440.9 185.16 439.54 183.86 437.74 183.21 432.98 182.2"/>
      <path id="borneo" class="cls-1" d="M904.28,409.26v2.81l-.94,1.94-2.81,1.3.86,1.44-.86,1.66-1.08,1.44-4,1.23.44,2-1.16,3.68,2.16,2.23,1.73,3.46,1.48,3.46.4,2.31,4.39.43,1.59,1.8,2.81,1.08,3.39.36,2.3,1.66,1.44.29.65-3.24-1.44-4.47L913.14,435l-.86-1.65-.72-2.38,1.44-.79-.36-1.37-1.08-.58-.29-1.95.79-.72-.5-1.08v-1.87l.79-1-1.44-1.22-2.31-1.3.51-2.67,2.45-.93.79-1.88-.79-1.3-2.45-1.15-.58-.65-1.08-1.94S904.28,408.82,904.28,409.26Z" transform="translate(-428.35 -254.37)"/>
      <polygon id="java" class="cls-1" points="506.05 152.87 506.05 155.03 502.16 155.03 502.16 154.17 500.36 155.39 500.94 159.14 499.86 159.43 499.86 160.72 497.77 163.32 495.82 163.32 493.44 165.7 495.1 167.72 494.16 169.01 494.02 171.32 495.17 171.82 495.1 174.13 492 177.52 492 179.9 493.15 181.41 492.94 183.35 492 183.86 492.87 186.53 495.68 188.4 497.12 189.48 498.13 190.71 499.78 189.48 500.18 185.59 501.01 184.44 502.09 184.51 504.4 181.62 505.69 179.68 504.54 178.31 504.11 177.16 505.48 176.22 507.93 173.99 508.86 172.18 509.22 168.29 509.8 167.28 509.8 163.25 508.57 161.88 508.86 158.85 508.29 158.2 508.36 156.91 509.22 155.97 509.08 153.37 506.05 152.87"/>
    </g>
    <g id="europe">
      <polygon id="russia" class="cls-1" points="403.72 113.81 401.27 113.81 401.27 110.78 398.87 108.05 398.24 105.31 396.22 103.29 392.62 100.69 392.62 97.96 390.46 94.06 388.73 92.33 387.29 88.16 388.01 83.25 386.57 80.52 385.27 77.78 386.57 72.88 383.25 71.44 385.13 70.14 385.13 66.1 383.54 63.22 381.52 61.63 379.07 61.63 376.48 58.75 372.44 57.02 372.15 53.85 373.76 51.83 373.02 48.37 371.72 45.49 369.27 42.61 365.67 42.61 360.34 40.88 357.6 40.16 357.45 38 358.46 35.84 360.34 33.1 360.91 30.21 360.34 28.05 358.89 26.32 356.59 25.75 353.27 24.88 350.25 25.6 346.07 30.07 342.03 30.07 342.03 31.51 339.58 33.38 334.54 33.96 333.24 36.5 332.22 38.45 331.29 40.68 330.82 49.06 332.12 49.06 333.24 50.73 333.24 54.36 332.31 55.38 332.31 57.99 331.38 59.38 329.35 60.77 329.92 62.79 330.93 68.12 333.38 68.84 334.1 70.86 334.25 73.31 335.11 75.33 334.68 79.22 335.83 82.68 333.38 85.99 334.25 90.75 333.38 93.06 340.4 93.06 340.4 95.1 343.06 95.1 345.15 98.31 347.8 96.92 350.32 97.33 351.57 99.15 354.64 99.99 355.75 103.06 360.36 103.06 361.89 103.89 367.33 103.89 369.15 105.99 369.15 108.08 371.94 108.08 371.94 109.75 373.05 111.43 373.89 113.52 374.73 115.89 375.99 118.41 377.52 118.41 378.64 119.8 379.19 121.75 378.08 123.57 378.22 125.24 379.19 126.64 377.49 129.63 380.51 128.08 382.89 126.93 385.42 125.34 387.58 123.18 391.04 121.74 390.46 119.86 394.5 116.12 397.81 117.41 398.87 115.83 405.45 116.69 403.72 113.81"/>
      <polygon id="sweden" class="cls-1" points="332.31 57.99 332.31 55.38 333.24 54.36 333.24 50.73 332.12 49.06 330.82 49.06 331.29 40.68 332.22 38.45 333.24 36.5 334.54 33.96 334.54 31.8 332.52 31.66 329.06 31.94 327.47 32.09 326.9 33.96 324.01 33.96 322.72 35.98 320.84 36.99 320.12 38.57 317.82 37.85 317.82 34.54 315.65 34.54 313.73 35.55 311.76 35.69 308.88 37.56 306.14 38.57 303.26 40.45 302.25 41.89 297.78 40.3 296.63 41.89 297.21 46.07 295.19 49.53 295.91 51.55 296.05 56.01 297.49 59.04 297.93 61.06 299.94 61.92 299.94 66.39 297.21 67.69 297.78 69.71 300.38 71.72 302.39 72.73 303.55 71 305.56 70.43 306.57 72.73 308.3 73.6 310.03 71 310.61 74.61 312.05 75.33 313.73 73.31 315.22 70.72 316.54 70.28 318.68 68.98 321.42 68.41 323 66.39 323.87 63.8 325.46 63.08 326.75 59.18 329.35 60.77 331.38 59.38 332.31 57.99"/>
      <polygon id="poland" class="cls-1" points="378.22 125.24 378.08 123.57 379.19 121.75 378.64 119.8 377.52 118.41 375.99 118.41 374.73 115.89 373.89 113.52 373.05 111.43 371.94 109.75 371.94 108.08 369.15 108.08 369.15 105.99 367.33 103.89 361.89 103.89 360.36 103.06 355.75 103.06 354.64 99.99 351.57 99.15 350.32 97.33 347.8 96.92 345.15 98.31 343.06 95.1 340.4 95.1 340.4 93.06 333.38 93.06 331.51 94.78 329.35 96.51 327.62 96.51 325.6 97.67 328.63 98.89 329.85 99.83 332.45 100.69 336.63 101.45 337.92 102.86 338.57 103.72 341.53 104.15 343.47 105.67 344.48 106.6 345.85 107.18 346.14 110.64 346.93 111.07 347.51 112.66 346.36 113.74 346.14 115.61 345.13 116.84 344.99 118.86 343.98 120.08 344.63 122.82 345.35 124.62 345.92 126.78 346.86 127.65 348.3 129.16 348.3 131.54 350.32 132.62 352.05 133.99 352.48 135.14 353.92 136.8 354.79 139.25 356.01 141.34 356.01 143.93 355.29 145.16 354.86 147.54 357.45 147.25 359.76 145.95 361.63 144.8 363.22 143.65 364.08 142.06 364.8 139.61 367.54 138.89 369.13 137.88 370.71 136.87 372.01 135 372.3 133.56 373.76 131.97 374.75 129.63 377.49 129.63 379.19 126.64 378.22 125.24"/>
      <polygon id="germany" class="cls-1" points="324.45 144.01 327.76 144.01 328.34 144.87 330.43 145.3 332.16 146.82 333.45 147.18 335.26 146.53 336.6 145.38 340.81 145.09 341.81 146.02 342.39 147.54 344.7 148.4 347.07 150.35 347.65 152.08 348.23 153.16 347.8 154.74 350.54 152.87 352.12 152.15 352.55 149.27 354.86 147.54 355.29 145.16 356.01 143.93 356.01 141.34 354.79 139.25 353.92 136.8 352.48 135.14 352.05 133.99 350.32 132.62 348.3 131.54 348.3 129.16 346.86 127.65 345.92 126.78 345.35 124.62 344.63 122.82 343.98 120.08 344.99 118.86 345.13 116.84 346.14 115.61 346.36 113.74 347.51 112.66 346.93 111.07 346.14 110.64 345.85 107.18 344.48 106.6 343.47 105.67 341.53 104.15 338.57 103.72 337.92 102.86 336.63 101.45 332.45 100.69 329.85 99.83 328.63 98.89 325.6 97.67 324.88 100.84 322.29 101.85 319.98 101.85 318.83 103.43 318.83 105.59 320.27 106.89 319.26 108.19 316.54 108.77 313.73 110.64 314.5 112.66 313.73 114.39 314.12 116.55 314.5 119.29 316.54 121.02 318.68 123.03 319.83 124.62 321.71 126.06 321.71 127.79 321.13 129.63 321.71 131.11 321.71 132.98 320.99 134.85 319.26 138.17 320.99 140.19 323.37 141.63 324.45 144.01"/>
      <polygon id="italy" class="cls-1" points="353.99 178.09 351.83 176.94 349.67 176.65 348.23 174.78 346.07 173.77 343.04 173.05 343.04 171.03 344.05 168 342.9 166.13 341.89 164.69 341.02 162.96 341.31 161.37 338.91 159.79 339.58 158.06 341.6 157.48 343.18 154.89 346.07 154.74 347.36 156.62 347.8 154.74 348.23 153.16 347.65 152.08 347.07 150.35 344.7 148.4 342.39 147.54 341.81 146.02 340.81 145.09 336.6 145.38 335.26 146.53 333.45 147.18 332.16 146.82 330.43 145.3 328.34 144.87 327.76 144.01 324.45 144.01 323.37 141.63 320.99 140.19 320.12 143.21 320.27 144.51 317.72 145.23 317.72 146.96 316.54 149.89 316.54 152.87 317.96 154.17 318.68 157.05 320.41 159.07 320.7 162.38 322 164.69 322.14 169.44 320.56 171.18 322.72 173.34 325.02 173.63 325.31 177.23 327.04 178.67 327.33 180.4 328.19 182.2 329.06 183.86 330.5 184.87 333.38 185.73 335.69 186.79 336.6 188.33 338.91 189.48 341.02 187.75 343.33 186.79 345.49 186.79 347.65 185.88 349.38 183.86 353.13 182.85 356.16 182.2 357.45 180.98 357.45 178.96 353.99 178.09"/>
      <polygon id="france" class="cls-1" points="320.99 134.85 321.71 132.98 321.71 131.11 321.13 129.63 321.71 127.79 321.71 126.06 319.83 124.62 318.68 123.03 316.54 121.02 314.5 119.29 314.12 116.55 313.73 114.39 314.5 112.66 313.73 110.64 311.48 110.64 310.03 111.65 307.73 112.51 307.15 114.53 304.85 113.67 303.4 112.37 301.39 114.53 300.52 115.97 299.08 117.27 297.49 117.27 295.19 118.13 293.89 121.45 291.87 122.17 291.3 123.9 289.86 125.34 289.86 129.63 288.56 130.38 287.02 131.39 287.98 133.41 288.7 135 291.01 135 291.15 137.16 288.56 136.58 287.69 138.31 286.11 140.91 284.38 141.92 282.22 142.78 280.63 143.93 279.62 145.52 281.45 146.91 281.45 148.74 282.31 149.89 283.37 151.53 283.37 152.68 282.12 153.83 282.5 155.27 283.37 156.62 283.37 158.06 286.16 158.54 287.02 159.88 287.02 161.61 289.04 162.38 289.04 163.73 291.01 163.82 292.02 161.52 293.6 159.79 294.32 156.91 296.63 155.18 299.37 155.61 301.39 157.77 302.83 157.77 304.56 155.61 305.71 154.17 307.01 153.45 308.59 152.87 309.89 152.87 310.61 151.13 312.05 149.89 313.73 150.56 316.54 149.89 317.72 146.96 317.72 145.23 320.27 144.51 320.12 143.21 320.99 140.19 319.26 138.17 320.99 134.85"/>
      <polygon id="spain" class="cls-1" points="289.04 162.38 287.02 161.61 287.02 159.88 286.16 158.54 283.37 158.06 283.37 156.62 282.5 155.27 282.12 153.83 283.37 152.68 283.37 151.53 282.31 149.89 281.45 148.74 281.45 146.91 279.62 145.52 273.86 144.65 271.12 144.8 269.82 143.21 267.23 143.5 265.93 145.52 263.77 145.52 262.9 147.1 262.04 148.4 260.31 147.25 258 148.4 255.15 148.4 253.97 146.53 251.52 149.89 250.65 152.87 251.8 154.17 250.65 156.91 252.24 158.92 250.65 160.37 250.65 162.38 252.81 162.38 251.66 165.55 249.07 167 249.07 169.16 250.65 170.31 250.94 174.06 251.66 177.23 253.1 179.1 251.66 181.12 252.24 183.86 253.68 184.87 257.43 184.87 258.58 182.99 260.88 182.2 263.91 182.85 266.22 182.2 268.24 182.2 269.53 183.86 273.14 183.28 275.15 182.2 277.6 181.41 279.05 179.82 280.77 178.09 281.06 174.2 283.23 171.79 285.39 170.74 288.7 168.87 290.14 166.27 291.01 163.82 289.04 163.73 289.04 162.38"/>
      <path id="great_britain" class="cls-1" d="M714.24,332.65l-.94.72v3.53l-1.73.65-1.44.79-.5,1.09-1.08.43L708,341.3l1.37.79.14,3.39h-2.23l-1-1.37-1.08.65-.79,1.3-1,1.36v1.95l.58.72.43,1.23-1.44,1-1.37-1.09-2.09.29a5.36,5.36,0,0,0-.51,1.52c.07.28,1.08.86,1.08.86l.15,1.51-1.59,1.08.51,2.6-.8,1-1.87,1.44-.29,1.22-1.51,1.37-1.23.51-.43,1.22L691.9,367h-1l-.51-1-1.58.07-.43,1.51,1,1,.43,1.51-2.16,1.81s-1.37,1.58-1.08,2a6.31,6.31,0,0,0,.93,1l2.45.29.87-1.66,1.73.15,1,1.51,1.58,1.37,3.1-.51.65,1.3,1.22.65,1.53,1h2l.79-1.44,1.3-.36.28.86,1.37.29,1.3-1,.72-1.66.94-1.29,1.44.07.79.86,1,.65,1.44-.79.22-1.73.93-.65,1.09-.57L718,370l.5-2.74-.79-1.8,2.95-.58,2-1.08-.58-2.23-.93-.58.21-1.87-.58-1.23-.93-.28-.29-.94.5-1-1-1.47-1.3-.72-.94-.72-.79-1.16v-1l.5-1,.8-.79,1.51-1.58-.94-1.95-1.73-.29.43-1.37,1.37-.93,1.37-2.24-.93-1.8-1.37-.43-.72-1.37,1.44-1.51.43-1.73Z" transform="translate(-428.35 -254.37)"/>
      <path id="iceland" class="cls-1" d="M660.69,327.82l-3,1.88-2.6-.94-1.87-.94v-4.9l-2,2.74-.86,2.88-1.88,2-1.58,2.09H645l-1.44-1.94-2,1.94,1.73,1.51v2H640.8v2.89l-1.44,1.58,1.59,1.59-.15,2.59h-2.3l1.29,2.74-1.29,1.73v2.16l-1.3.87-.86-2.31L634,348.18l-.72,3-1.73,1.88,1.15,1.73,2,2.59,1.87,1.59h1.73l2.17,3.17,1,1.29,1.3,1.16-1.44,1.87v2.16l2,1h1.73l1,1.73,1,1.73h3.45l.73-2.74,1.44-1.15,1.73,1.73.14,2.16h1.59a16.58,16.58,0,0,0,1.29-2,8.87,8.87,0,0,0,0-2l-1-1.87,3.17-1.3L662,365V362.7l2.31.87,1.87-1.16v-2l1.59-.87.72-2.45v-2l2.45-.14-1.59-3.17-2.45.29-1.73-1,.15-1.44-.87-1.59.15-1.87,1.29-.87.72-3.31-.86-1.73-2.45,1.15-1.15-1.73-.29-2.16,1.15-2.16,2.16-1.16-.29-1.51L663.72,330l-.58,2-1.87.65Z" transform="translate(-428.35 -254.37)"/>
    </g>
    <g id="africa">
      <polygon id="sahara" class="cls-1" points="317.82 234.16 317.82 230.41 320.27 230.99 322.57 228.54 325.46 224.22 327.62 224.22 331.08 221.62 333.38 218.16 334.68 216.14 334.97 214.41 336.6 212.83 339 211.82 339.44 210.38 340.59 208.07 343.76 208.07 346.07 204.9 343.04 203.32 341.45 203.32 339.58 201.73 337.27 201.73 336.6 196.4 332.37 193.32 332.37 189.86 330.07 192.17 326.42 192.17 322.38 189.86 318.92 189.86 318.92 191.98 316.23 191.59 312.19 187.75 310.85 189.86 305.85 188.9 305.85 186.79 301.43 192.94 296.63 193.13 295.28 197.74 295.28 200.43 293.55 202.74 292.79 204.47 289.13 204.47 290.86 209.47 289.13 209.47 287.02 211.96 289.33 216.77 291.82 219.27 293.17 222.34 295.67 224.46 298.55 224.46 298.74 228.49 300.86 230.03 300.67 232.53 303.36 233.87 305.66 235.22 306.43 237.14 309.12 238.1 310.85 239.64 313.73 239.64 315.08 234.16 317.82 234.16"/>
      <polygon id="zaire" class="cls-1" points="349.24 248.14 350.92 245.4 356.01 244.83 358.46 242.09 360.48 239.64 362.5 237.48 364.08 233.58 361.78 231.28 356.88 230.41 355 229.52 353.56 228.11 351.4 228.11 350.25 225.94 348.97 224.07 346.21 224.07 345.2 222.77 345.2 219.6 343.18 219.6 341.02 220.47 340.16 218.74 336.6 218.74 333.38 218.16 331.08 221.62 327.62 224.22 325.46 224.22 322.57 228.54 320.27 230.99 317.82 230.41 317.82 234.16 315.08 234.16 313.73 239.64 315.65 239.64 317.38 239.64 322.19 240.6 323.34 242.52 325.84 242.52 328.34 245.21 330.64 245.21 331.22 242.33 334.49 243.29 336.6 247.32 336.6 249.63 339.87 249.63 341.41 252.51 343.52 253.86 345.25 255.2 348.32 255.2 348.32 252.03 349.24 248.14"/>
      <polygon id="south_africa" class="cls-1" points="384.12 234.16 383.11 235.6 378.64 234.59 376.91 233.58 369.13 235.6 368.12 233.58 364.08 233.58 362.5 237.48 360.48 239.64 358.46 242.09 356.01 244.83 350.92 245.4 349.24 248.14 348.32 252.03 348.32 255.2 348.32 258.47 353.13 262.31 353.13 265 355.63 266.93 358.32 266.93 362.93 268.08 365.04 270.19 368.31 271.35 371.39 275.19 374.27 275.19 375.61 272.88 375.61 269.62 378.11 268.08 380.42 267.5 382.15 266.73 382.15 261.35 383.3 258.47 381 257.89 381.38 254.44 381 252.32 379.26 249.44 380.03 246.94 381.38 242.9 381.76 240.6 384.26 238.29 386.38 237.14 388.11 235.99 388.11 233.58 384.12 234.16"/>
      <polygon id="egypt" class="cls-1" points="408.04 201.88 406.75 203.32 405.74 202.02 401.7 201.59 400.12 204.04 397.81 201.44 395.5 200.58 393.34 198.99 393.92 197.55 396.08 197.41 395.5 195.82 393.05 195.82 392.91 191.21 389.74 191.06 387.29 192.36 384.98 191.5 385.99 187.75 384.55 186.79 382.96 183.86 381.09 185.88 377.92 186.45 375.76 186.16 373.02 183.86 370.71 184.87 371 187.17 372.44 188.04 371.15 190.06 367.83 189.48 367.25 187.61 364.95 188.04 363.94 189.48 363.36 191.5 361.35 191.79 361.49 193.8 358.32 192.94 355.87 192.94 354.71 190.63 353.27 192.36 351.4 192.22 351.11 193.8 346.64 193.66 345.63 191.21 345.06 193.37 343.33 194.52 342.03 196.25 340.01 196.4 338.86 194.52 338.14 195.97 336.6 196.4 337.27 201.73 339.58 201.73 341.45 203.32 343.04 203.32 346.07 204.9 353.85 204.9 355.87 206.92 361.49 206.92 363.07 206.92 365.09 205.62 367.4 208.94 368.69 210.09 372.44 210.09 374.89 211.39 376.19 211.39 378.35 213.84 378.93 215.42 381.67 215.42 385.42 217.44 387.29 218.74 388.44 220.61 390.03 221.33 392.48 221.33 393.63 222.77 396.66 221.76 397.67 220.04 399.39 218.16 402.13 217.15 402.13 215.28 403.43 213.84 404.58 212.54 405.74 209.66 408.76 206.49 408.76 204.76 410.93 202.02 408.04 201.88"/>
      <polygon id="ethiopia" class="cls-1" points="393.63 222.77 392.48 221.33 390.03 221.33 388.44 220.61 387.29 218.74 385.42 217.44 381.67 215.42 378.93 215.42 378.35 213.84 376.19 211.39 374.89 211.39 372.44 210.09 368.69 210.09 367.4 208.94 365.09 205.62 363.07 206.92 361.49 206.92 355.87 206.92 353.85 204.9 346.07 204.9 343.76 208.07 340.59 208.07 339.44 210.38 339 211.82 336.6 212.83 334.97 214.41 334.68 216.14 333.38 218.16 336.6 218.74 340.16 218.74 341.02 220.47 343.18 219.6 345.2 219.6 345.2 222.77 346.21 224.07 348.97 224.07 350.25 225.94 351.4 228.11 353.56 228.11 355 229.52 356.88 230.41 361.78 231.28 364.08 233.58 368.12 233.58 369.13 235.6 376.91 233.58 378.64 234.59 383.11 235.6 384.12 234.16 388.11 233.58 390.31 235.17 392.05 235.17 392.05 229.84 394.5 227.24 393.63 222.77"/>
      <polygon id="madagascar" class="cls-1" points="403.86 227.63 408.09 228.2 409.44 226.76 409.92 224.26 410.93 222.44 412.03 221.96 412.03 220.61 414.53 219.75 416.16 219.75 418.66 219.75 418.66 218.69 420.39 218.16 421.06 216.96 422.79 216.96 423.27 218.16 424.71 218.98 425.68 217.73 427.31 217.54 429.23 219.36 427.69 220.25 427.6 222.58 426.54 222.77 424.81 222.77 425.29 225.61 423.85 226.67 423.18 227.72 422.79 233.97 423.95 235.12 422.6 236.68 420.49 236.68 420.01 238 419.24 240.21 420.58 241.18 421.45 251.36 420.49 252.13 418.85 249.92 417.99 250.78 417.51 253.09 416.55 253.09 416.55 254.39 415.11 255.2 413.66 256.45 413.95 262.6 412.13 262.6 411.94 260.58 410.49 262.12 409.92 265.2 404.63 265.2 404.82 263.08 403.86 262.7 402.9 260.87 400.6 260.78 400.02 259.82 398.87 257.51 399.83 255.78 400.02 252.99 400.69 250.69 401.27 249.25 401.75 247.71 401.27 246.36 402.42 244.83 403.1 243.67 403.86 241.85 402.71 240.41 400.98 239.64 401.27 231.47 402.23 228.78 403.86 227.63"/>
    </g>
  </g>
  <g id="connections">
    <line class="cls-2" x1="271.65" y1="126.01" x2="270.04" y2="141.9"/>
    <line class="cls-2" x1="238.21" y1="189.48" x2="290" y2="202.07"/>
    <line class="cls-2" x1="284.81" y1="177.37" x2="296.99" y2="189.48"/>
    <line class="cls-2" x1="358.89" y1="150.42" x2="359.52" y2="189.96"/>
    <line class="cls-2" x1="368.02" y1="154.74" x2="363.94" y2="185.97"/>
    <line class="cls-2" x1="241.79" y1="107.18" x2="262.76" y2="107.18"/>
    <line class="cls-2" x1="296.99" y1="103.29" x2="316.16" y2="105.88"/>
    <line class="cls-2" x1="243.2" y1="102.23" x2="295.19" y2="69.27"/>
    <line class="cls-2" x1="187.38" y1="73.16" x2="206.83" y2="86.86"/>
    <line class="cls-2" x1="167.38" y1="72.16" x2="147.31" y2="96.8"/>
    <line class="cls-2" x1="156.68" y1="41.74" x2="146.24" y2="55"/>
    <line class="cls-2" x1="401.12" y1="220.26" x2="406.6" y2="225.22"/>
    <path class="cls-3" d="M767.26,508.76s16.81,45.35,62.21,12.06" transform="translate(-428.35 -254.37)"/>
    <line class="cls-3" x1="386.9" y1="176.12" x2="387.19" y2="185.3"/>
    <line class="cls-3" x1="501.66" y1="192" x2="507.78" y2="205.33"/>
    <line class="cls-3" x1="487.53" y1="191.5" x2="489.62" y2="194.88"/>
    <line class="cls-3" x1="453.4" y1="212.3" x2="457.41" y2="215.69"/>
    <line class="cls-3" x1="442.88" y1="184.69" x2="445.76" y2="179.5"/>
    <line class="cls-3" x1="462" y1="36.51" x2="475.06" y2="37.76"/>
    <line class="cls-3" x1="476.17" y1="67.89" x2="485.3" y2="61.11"/>
    <g>
      <line class="cls-3" x1="146.24" y1="225.03" x2="6.54" y2="226.73"/>
      <path d="M432.48,481.13a11.85,11.85,0,0,0,3.38-1.93l-.66,1.9.7,1.88A11.87,11.87,0,0,0,432.48,481.13Z" transform="translate(-428.35 -254.37)"/>
    </g>
    <g>
      <path d="M443.53,486.26l.4-.06H444l.44.06v.16h-.92Zm1.19-2.53H445l.92,2.69h-.37l-.8-2.39h.09l-.82,2.39h-.18Zm-.46,1.63h1.08l.06.19h-1.21Zm.78.9.51-.06h.08l.49.06v.16H445Z" transform="translate(-428.35 -254.37)"/>
      <path d="M446.78,485.72c0,.35.11.48.32.48a.89.89,0,0,0,.62-.3h.08v.2h-.2l.14-.06a1,1,0,0,1-.76.44c-.32,0-.52-.2-.52-.72V484.7l.09.08-.37-.08v-.14l.57-.06,0,0,0,.56Zm1,.74-.05-.47V484.7l.08.08-.37-.08v-.14l.57-.06,0,0v1.76l-.1-.1.37.08v.14Z" transform="translate(-428.35 -254.37)"/>
      <path d="M448.62,486.32l0-.43h.22l.1.47-.19-.09v-.14a.75.75,0,0,0,.49.17c.31,0,.45-.13.45-.31s-.12-.26-.37-.35l-.18-.07c-.3-.11-.49-.27-.49-.54s.25-.55.69-.55a1.08,1.08,0,0,1,.56.16l0,.4h-.2l-.08-.4.14.07v.1a.62.62,0,0,0-.4-.15c-.25,0-.38.1-.38.27s.1.25.37.35l.12,0c.4.15.55.34.55.59s-.26.57-.77.57A1.24,1.24,0,0,1,448.62,486.32Z" transform="translate(-428.35 -254.37)"/>
      <path d="M451.06,486.28a.43.43,0,0,0,.27-.12l.09.11a.56.56,0,0,1-.46.21.41.41,0,0,1-.45-.46c0-.09,0-.18,0-.33v-.95h-.34v-.18l.5-.06-.16.13.12-.64h.23l0,.69V486C450.84,486.19,450.92,486.28,451.06,486.28Zm.33-1.75v.21h-.71v-.21Z" transform="translate(-428.35 -254.37)"/>
      <path d="M451.91,485.58v-.18c0-.22,0-.35,0-.51l-.32,0v-.14l.54-.24.06,0,.05.5v.56c0,.25,0,.66,0,.84h-.34C451.9,486.24,451.91,485.83,451.91,485.58Zm-.3.7.44-.08h.08l.44.08v.14h-1Zm.46-1.24h.23l-.1,0c.12-.37.37-.59.6-.59a.35.35,0,0,1,.29.13c0,.19-.07.29-.23.29a.34.34,0,0,1-.24-.09l-.11-.09.19,0a.93.93,0,0,0-.48.63h-.15Z" transform="translate(-428.35 -254.37)"/>
      <path d="M453.92,485.38a3.49,3.49,0,0,1,.62-.17v.14a4,4,0,0,0-.54.16c-.36.14-.4.29-.4.41a.28.28,0,0,0,.32.3c.14,0,.22-.06.48-.24l.08-.06,0,.09-.11.11c-.24.24-.38.36-.62.36a.49.49,0,0,1-.54-.5C453.26,485.75,453.38,485.57,453.92,485.38Zm.46.68v-.92c0-.39-.12-.48-.38-.48a.93.93,0,0,0-.36.07l.16-.13-.1.35c0,.11-.1.18-.21.18a.16.16,0,0,1-.18-.16.74.74,0,0,1,.77-.49c.42,0,.62.19.62.69V486c0,.18.05.24.14.24a.2.2,0,0,0,.16-.09l.08.09a.37.37,0,0,1-.34.2A.36.36,0,0,1,454.38,486.06Z" transform="translate(-428.35 -254.37)"/>
      <path d="M455.82,483.47l.06,0,0,.57v1.51c0,.28,0,.56,0,.84h-.34c0-.28,0-.56,0-.84v-1.75l-.33,0v-.14Zm.37,2.81v.14h-1v-.14l.45-.08h.08Z" transform="translate(-428.35 -254.37)"/>
      <path d="M456.74,486.42c0-.18,0-.59,0-.84v-.18c0-.22,0-.35,0-.51l-.33,0v-.14l.6-.24.06,0v1.06c0,.25,0,.66,0,.84Zm.61-.14v.14h-.92v-.14l.44-.08H457Zm-.71-2.51a.26.26,0,0,1,.52,0,.26.26,0,1,1-.52,0Z" transform="translate(-428.35 -254.37)"/>
      <path d="M458.32,485.38a3.74,3.74,0,0,1,.62-.17v.14a4,4,0,0,0-.54.16c-.36.14-.4.29-.4.41s.14.3.33.3.22-.06.47-.24l.08-.06.06.09-.12.11c-.24.24-.38.36-.62.36a.49.49,0,0,1-.53-.5C457.67,485.75,457.78,485.57,458.32,485.38Zm.46.68v-.92c0-.39-.11-.48-.38-.48a.93.93,0,0,0-.36.07l.16-.13-.1.35c0,.11-.1.18-.2.18a.16.16,0,0,1-.18-.16.72.72,0,0,1,.77-.49c.41,0,.61.19.61.69V486c0,.18.06.24.15.24a.19.19,0,0,0,.15-.09l.08.09a.36.36,0,0,1-.34.2A.36.36,0,0,1,458.78,486.06Z" transform="translate(-428.35 -254.37)"/>
    </g>
    <line class="cls-3" x1="482.92" y1="156.76" x2="486.55" y2="152.05"/>
  </g>
</svg>
